Music_MeetRivalAlt::
	channel_count 3
	channel 1, Music_MeetRivalAlt_Ch1
	channel 2, Music_MeetRivalAlt_Ch2
	channel 3, Music_MeetRivalAlt_Ch3

Music_MeetRivalAlt_Ch1::
	tempo 112
	sound_loop 0, Music_MeetRivalAlt_branch_b1a5


Music_MeetRivalAlt_branch_b140::
	note B_, 4
	note A#, 2
	note A_, 4
	note G_, 2
	octave 4
	note C_, 4
	note D_, 2
	rest 4
	note D_, 4
	note C#, 2
	note C_, 2
	octave 3
	note B_, 2
	octave 4
	note C_, 4
	note E_, 2
	note D_, 4
	note C_, 2
	octave 3
	note B_, 4
	octave 4
	note C_, 2
	rest 4
	note G_, 4
	note G_, 2
	note F#, 2
	note E_, 2
	note D_, 2
	note F#, 2
	octave 3
	note A_, 2
	octave 4
	note D_, 2
	note F#, 2
	octave 3
	note A_, 2
	octave 4
	note D_, 2
	octave 3
	note D_, 2
	octave 4
	note D_, 2
	rest 2
	octave 3
	note D_, 2
	octave 4
	note C_, 4
	octave 3
	note B_, 2
	note A#, 2
	note B_, 2
	octave 4
	note C_, 2
	note F_, 2
	octave 3
	note G_, 2
	octave 4
	note C_, 2
	note F_, 2
	note D#, 2
	note C_, 2
	octave 3
	note A#, 2
	note G_, 2
	rest 4
	note A#, 4
	octave 4
	note C_, 2
	octave 3
	note A#, 2
	octave 4
	note C_, 2
	note_type 12, 11, 7
	octave 3
	note G_, 4
	note D_, 2
	note F_, 6
	note F#, 4
	note D_, 2
	rest 4
	note D_, 4
	note_type 12, 11, 3
	note A_, 2
	note G_, 2
	note A_, 2
	sound_loop 0, Music_MeetRivalAlt_branch_b140


Music_MeetRivalAlt_branch_b1a5::
	volume 7, 7
	duty_cycle 3
	vibrato 6, 3, 4
	toggle_perfect_pitch
	note_type 12, 11, 3
	octave 3
	note D_, 1
	rest 3
	note D_, 1
	rest 5
	note A_, 2
	note G_, 2
	note A_, 2
	sound_loop 0, Music_MeetRivalAlt_branch_b140


Music_MeetRivalAlt_branch_b1d8::
	note_type 12, 12, 7
	note G_, 4
	note D_, 2
	note F_, 6
	note F#, 4
	note G_, 2
	rest 4
	note G_, 4
	note G_, 2
	note A#, 2
	note B_, 2
	octave 5
	note C_, 4
	octave 4
	note G_, 2
	note A#, 6
	note B_, 4
	octave 5
	note C_, 2
	rest 4
	note C_, 4
	note C_, 2
	octave 4
	note B_, 2
	octave 5
	note C_, 2
	note_type 12, 11, 0
	note D_, 16
	note_type 12, 11, 5
	note D_, 6
	note_type 12, 12, 7
	note F_, 4
	note D_, 2
	note C_, 2
	note D_, 2
	note_type 12, 11, 0
	note C_, 8
	note_type 12, 12, 7
	note C_, 8
	octave 4
	note C_, 2
	rest 4
	note A#, 4
	note G_, 2
	note F_, 2
	note_type 12, 11, 0
	note G_, 16
	note_type 12, 11, 3
	note G_, 2
	octave 3
	note G_, 2
	rest 4
	note G_, 4
	octave 4
	note D_, 2
	note F_, 2
	note F#, 2
	sound_loop 0, Music_MeetRivalAlt_branch_b1d8

Music_MeetRivalAlt_Ch2::
	duty_cycle 3
	vibrato 10, 2, 6
	note_type 12, 12, 7
	octave 3
	note G_, 1
	rest 3
	note G_, 1
	rest 3
	note D_, 1
	rest 1
	octave 4
	note D_, 2
	note F_, 2
	note F#, 2
	sound_loop 0, Music_MeetRivalAlt_branch_b1d8

Music_MeetRivalAlt_branch_b24b::
	note G_, 2
	octave 5
	note D_, 2
	octave 4
	note G_, 2
	rest 2
	octave 5
	note D_, 2
	octave 4
	note G_, 2
	rest 2
	octave 5
	note D_, 2
	octave 4
	note G_, 2
	rest 4
	octave 5
	note D_, 4
	octave 4
	note G_, 2
	note A#, 2
	note B_, 2
	note G_, 2
	octave 5
	note C_, 2
	octave 4
	note G_, 2
	rest 2
	octave 5
	note C_, 2
	octave 4
	note G_, 2
	rest 2
	note B_, 2
	octave 5
	note C_, 2
	rest 4
	note C_, 4
	note C_, 2
	octave 4
	note B_, 2
	note A_, 2
	note F#, 2
	note A_, 2
	rest 2
	note F#, 2
	note A_, 2
	note F#, 2
	rest 2
	note A_, 2
	note F#, 2
	note A_, 2
	rest 2
	note F#, 2
	note A_, 2
	note F#, 2
	octave 5
	note D_, 2
	octave 4
	note A_, 2
	note E_, 2
	octave 5
	note C_, 2
	rest 2
	octave 4
	note E_, 2
	octave 5
	note C_, 2
	octave 4
	note E_, 2
	note F_, 2
	note G_, 2
	note E_, 2
	rest 4
	note E_, 2
	octave 5
	note C_, 2
	octave 4
	note B_, 2
	note A#, 2
	note A_, 2
	note G_, 2
	note A#, 2
	rest 2
	note G_, 2
	note A#, 2
	note G_, 2
	rest 2
	note A#, 2
	note G_, 2
	octave 5
	note D_, 2
	octave 4
	note G_, 2
	rest 2
	octave 5
	note D_, 2
	octave 4
	note G_, 2
	rest 2
	octave 5
	note D_, 2
	sound_loop 0, Music_MeetRivalAlt_branch_b24b

Music_MeetRivalAlt_Ch3::
	note_type 12, 1, 4
	octave 4
	note G_, 1
	rest 3
	note G_, 1
	rest 3
	note G_, 1
	rest 1
	note G_, 1
	rest 1
	note G_, 1
	rest 1
	note G_, 1
	rest 1
	sound_loop 0, Music_MeetRivalAlt_branch_b24b
